<?xml version="1.0" encoding="UTF-8"?>
<svg id="Layer_1" data-name="Layer 1" xmlns="http://www.w3.org/2000/svg" viewBox="0 0 832.35 377.85">
  <defs>
    <style>
      .cls-1 {
        fill: #191919;
        stroke-width: 12px;
      }

      .cls-1, .cls-2, .cls-3 {
        stroke: #191919;
        stroke-linecap: round;
        stroke-miterlimit: 10;
      }

      .cls-2 {
        fill: none;
      }

      .cls-2, .cls-3 {
        stroke-width: 15px;
      }

      .cls-3 {
        fill: #f4f9f9;
      }

      .cls-4 {
        fill: teal;
      }
    </style>
  </defs>
  <path class="cls-4" d="M449.65,261.29c-.84,.02-1.69,0-2.54-.07-10.35-.83-19.02-8.27-25.35-16.51-13.35-17.35-19.54-39.07-24.18-60.46-7.01-32.34-11.13-65.56-8.46-98.54,1.09-13.47,3.37-27.03,9.03-39.31,5.66-12.27,15.01-23.23,27.34-28.74-2.59,1.16-7.52,.45-10.48,1.08-3.58,.76-7.08,1.92-10.43,3.42-6.7,3-12.78,7.37-17.73,12.78-11.44,12.52-14.38,29.83-15.76,46.21-2.73,32.4,4.11,64.75,11.21,96.18,6.23,27.58,13.05,55.95,29.78,78.74,10.98,14.97,26.37,27.9,30.42,46.02,4.34,19.42-5.12,42.2,6.47,58.36,4.31,6.02,10.97,9.97,17.87,12.65,26.2,10.2,57.44,3.3,79.06-14.67,21.62-17.97,33.9-45.75,36.01-73.78,.25-3.3,4.83-43.82-17.91-81.38-2.1-3.47-17.8-29.4-27.51-26.45-3.48,1.05-5.9,5.72-6.07,9.62-.21,4.82,3.47,6.55,10.38,15.83,5.69,7.64,9.05,14.26,10.91,17.92,0,0,3.22,6.35,5.77,13.33,17.19,47.01-2.35,83.37-2.35,83.37-11.91,25.82-38.78,45.66-67.16,43.98-8.64-.51-17.81-3.37-22.85-10.42-3.93-5.5-4.7-12.59-5.12-19.33-.63-10.27-.72-20.72,1.85-30.68,3.98-15.42,13.96-28.44,22.53-41.86,34.2-53.52,48-119.1,41.83-182.31-1.7-17.41-5.58-36.05-18.59-47.74-8.77-7.88-21.16-11.56-32.81-9.74,14.31,6.89,24.45,20.66,29.82,35.61,5.37,14.94,6.45,31.08,6.43,46.96-.03,32.9-4.55,65.77-13.04,97.55-4.62,17.3-10.7,34.79-22.53,48.23-6.68,7.58-15.89,13.89-25.85,14.14Z"/>
  <path class="cls-4" d="M397.36,150.57c.76-4.38,5.57-7.06,11.91-9.54,19.34-7.57,37.87-7.37,44.57-7.14,1.51,.05,16.69,.67,34.55,6.61,7.73,2.57,13.01,5.16,14.21,9.9,.75,2.95-.04,6.85-2.52,8.64-3.94,2.85-10.26-.99-17.81-3.96-12.93-5.08-25.79-6.19-34-5.76-19.94,1.06-34.01,7.9-34.01,7.9-3.33,1.62-8.52,4.47-12.59,2.35-3.03-1.58-4.9-5.63-4.32-9Z"/>
  <path class="cls-4" d="M297.97,270.86c-3.21-3.28-2.23-9.64-.04-17.41,6.67-23.71,19.39-42.14,24.12-48.72,1.06-1.48,11.88-16.32,29.03-30.77,7.42-6.25,13.19-10.05,18.04-8.53,3.01,.94,5.79,3.98,5.64,7.49-.25,5.58-7.79,9.7-15.43,15.55-13.08,10.01-22.74,22.24-27.93,30.72-12.61,20.56-16.32,38.58-16.32,38.58-.88,4.27-1.97,11.1-6.53,13.95-3.39,2.12-8.11,1.67-10.57-.86Z"/>
  <ellipse class="cls-2" cx="653.95" cy="309.04" rx="50.38" ry="54.34"/>
  <path class="cls-2" d="M823.41,276.68c-1.53-1.56-20.13-19.94-44.62-15.11-23.65,4.66-41.58,28.76-38.14,53.98,3.21,23.51,24.3,42.89,47.5,41.74,22.43-1.11,35.32-20.84,36.7-23.03"/>
  <circle class="cls-1" cx="411.09" cy="17.67" r="11.67"/>
  <circle class="cls-1" cx="486.05" cy="17.67" r="11.67"/>
  <path class="cls-3" d="M380.48,331.39h-125.25"/>
  <polyline class="cls-2" points="202.57 189.13 113.33 189.13 113.33 357 202.57 357"/>
  <line class="cls-2" x1="202.57" y1="270.76" x2="120.04" y2="270.76"/>
</svg>